<svg xmlns="http://www.w3.org/2000/svg" viewBox="0 0 458 580.94"><defs><style>.cls-1{fill:#283a8d;}.cls-2{fill:#8dc642;}.cls-3{fill:#bf202f;}.cls-4{fill:#af9330;}.cls-5{fill:#fff;}</style></defs><title>Logo SMA Transparent_1</title><g id="Layer_2" data-name="Layer 2"><g id="Layer_1-2" data-name="Layer 1"><polygon class="cls-1" points="137 179.94 137 516.94 0 516.94 0 111.94 137 179.94"/><polygon class="cls-2" points="300.65 0 300.65 209.75 280.34 209.75 231.6 390.3 205.9 209.75 161.41 209.75 145 469.19 145 39.94 300.65 0"/><polygon class="cls-2" points="300.65 209.75 300.65 516.42 145 516.42 145 469.19 161.41 209.75 205.9 209.75 231.6 390.3 280.34 209.75 300.65 209.75"/><path class="cls-3" d="M457.61,61V516.42H430.52l16.21-254q3.18-52.63-45.16-52.63H371.62q-39.93,0-49.05,35.9l-14,220.7v-365Z"/><path class="cls-3" d="M446.73,262.38l-16.21,254H308.61V466.35l14-220.7q9.12-35.91,49.05-35.9h29.95Q449.92,209.75,446.73,262.38Z"/><rect class="cls-4" y="521.94" width="458" height="59"/><path class="cls-5" d="M11,530.9h10q6.62,0,6.61,7v12.15q0,6.95-6.55,7H16.43v14.82H11Zm5.48,21.15H19.9c1.45,0,2.17-.8,2.17-2.39v-11.4a2.15,2.15,0,0,0-2.45-2.4H16.43Z"/><path class="cls-5" d="M40.6,535.86v36H35.12v-36H29.88v-5h16v5Z"/><path class="cls-5" d="M49.94,564.88v7H44.13v-7Z"/><path class="cls-5" d="M73.83,541.9v-3.59a2.15,2.15,0,0,0-2.4-2.45h-.85c-1.56,0-2.34.82-2.34,2.45v6.79a2,2,0,0,0,.46,1.53,11.24,11.24,0,0,0,1.48,1l5.19,2.79A25.34,25.34,0,0,1,77.79,552a3.9,3.9,0,0,1,1.11,1.32,7.12,7.12,0,0,1,.4,2.93v8.72q0,6.9-6.61,6.9H69.32q-6.55,0-6.55-7.52v-2.06h5.47v2.23a2.14,2.14,0,0,0,2.45,2.39h1c1.45,0,2.17-.8,2.17-2.39v-7a2,2,0,0,0-.46-1.54,12.49,12.49,0,0,0-1.48-1l-5.19-2.91a16.74,16.74,0,0,1-2.48-1.54,3.57,3.57,0,0,1-1.11-1.62,8.15,8.15,0,0,1-.34-2.6v-8.38q0-7,6.55-7h3.43q6.54,0,6.55,7v4Z"/><path class="cls-5" d="M89.05,571.83H83.58V537.91q0-7,6.55-7h4.1q6.55,0,6.56,7v33.92H95.32v-15H89.05Zm6.27-20V538.26a2.12,2.12,0,0,0-2.4-2.4H91.44a2.12,2.12,0,0,0-2.39,2.4v13.62Z"/><path class="cls-5" d="M116.75,555l5.07-24.06h6.05v40.93h-5.48L123,545l-4.1,19.38h-4.22L110.54,545l.57,26.79h-5.47V530.9h6Z"/><path class="cls-5" d="M150.78,530.9v33.18q0,7.75-6.61,7.75h-4.62q-6.56,0-6.55-7.81V530.9h5.47v33.29c0,1.79.8,2.68,2.39,2.68h2.23c1.48,0,2.22-.89,2.22-2.68V530.9Z"/><path class="cls-5" d="M155.91,571.83V530.9h9.52q7.69,0,7.7,7.87V565.9q0,5.94-6.56,5.93Zm5.48-5h4.1c1.44,0,2.17-.61,2.17-1.82V538.82c0-2-.82-3-2.45-3h-3.82Z"/><path class="cls-5" d="M178,571.83V530.9h13.57v5h-8.09v12.43h7.18v5h-7.18v13.62h8.09v5Z"/><path class="cls-5" d="M195.47,530.9h10.72q6.27,0,6.27,7V548q0,5.37-3.25,6.79l3.82,17h-5.19l-3.59-16.53H201v16.53h-5.48ZM201,550.62h3.59c1.63,0,2.45-1,2.45-3v-8.84c0-2-.82-3-2.45-3H201Z"/><path class="cls-5" d="M222.21,571.83h-5.47V537.91q0-7,6.55-7h4.11q6.54,0,6.55,7v33.92h-5.47v-15h-6.27Zm6.27-20V538.26a2.12,2.12,0,0,0-2.4-2.4H224.6a2.12,2.12,0,0,0-2.39,2.4v13.62Z"/><path class="cls-5" d="M259,555l5.07-24.06h6v40.93h-5.48l.57-26.79-4.1,19.38h-4.22L252.82,545l.57,26.79h-5.47V530.9h6Z"/><path class="cls-5" d="M293.06,530.9v33.18q0,7.75-6.61,7.75h-4.62q-6.56,0-6.55-7.81V530.9h5.47v33.29c0,1.79.8,2.68,2.39,2.68h2.23c1.48,0,2.22-.89,2.22-2.68V530.9Z"/><path class="cls-5" d="M311.19,571.83h-13V530.9h5.48v36h7.52Z"/><path class="cls-5" d="M314.32,571.83V530.9h5.48v40.93Z"/><path class="cls-5" d="M330.11,571.83h-5.47V537.91q0-7,6.56-7h4.1q6.56,0,6.56,7v33.92h-5.48v-15h-6.27Zm6.27-20V538.26a2.11,2.11,0,0,0-2.39-2.4h-1.48a2.12,2.12,0,0,0-2.4,2.4v13.62Z"/><path class="cls-5" d="M361,571.83h-5.47V537.91q0-7,6.55-7h4.11q6.56,0,6.55,7v33.92h-5.47v-15H361Zm6.27-20V538.26a2.12,2.12,0,0,0-2.4-2.4H363.4a2.12,2.12,0,0,0-2.39,2.4v13.62Z"/><path class="cls-5" d="M390.31,550.8q4.5,1.25,4.5,4.67v10.26q0,6.1-6.21,6.1h-11V530.9H387q7.29,0,7.29,7.41v7.87q0,3.54-3.93,4.33Zm-7.24-2.63h2.56c2.09,0,3.14-1,3.14-3v-6.39c0-2-.82-3-2.45-3h-3.25Zm0,18.7h4.1c1.45,0,2.17-.59,2.17-1.77V556q0-2.91-3.25-2.91h-3Z"/><path class="cls-5" d="M404.56,571.83h-5.47V537.91q0-7,6.55-7h4.11q6.56,0,6.55,7v33.92h-5.47v-15h-6.27Zm6.27-20V538.26a2.12,2.12,0,0,0-2.39-2.4H407a2.12,2.12,0,0,0-2.39,2.4v13.62Z"/><path class="cls-5" d="M421.15,571.83V530.9h9.52q7.69,0,7.69,7.87V565.9q0,5.94-6.55,5.93Zm5.47-5h4.1c1.45,0,2.17-.61,2.17-1.82V538.82c0-2-.82-3-2.45-3h-3.82Z"/><path class="cls-5" d="M443.21,571.83V530.9h5.47v40.93Z"/><path class="cls-5" d="M107.19,292.33H137V220.06q-11.3-10.31-32.7-10.31H79.49q-48.36,0-51.53,52.63L23.8,325.27q-.57,12,1.48,19.47a24.55,24.55,0,0,0,7.35,12.19q5.28,4.71,17.62,11.55L86.79,390.3A80.15,80.15,0,0,1,97.18,398c2.12,2,3,5.85,2.65,11.56l-3.61,52.19q-1.08,18-16.9,18H72.05q-18,0-16.9-18l1.48-16.68H16.41l-1,15.4q-3.66,56.47,44.69,56.47H84.45q48.78,0,52-51.76l.6-9.37V374.24a28.24,28.24,0,0,0-5.67-6.4q-4.87-4.06-17.19-11.34l-36.55-21a77.85,77.85,0,0,1-10.39-7.7c-2.12-2-3-5.85-2.65-11.55l3.16-50.92Q69.21,247,86.33,247h6.41q17.55,0,16.05,18.39Z"/><path class="cls-5" d="M280.34,209.75,231.6,390.3,205.9,209.75H161.41L145,469.19v47.23h37.22l8.32-200.56,21.4,145.46h30.8L282.1,315.86,265.24,516.42h35.41V209.75Z"/><path class="cls-5" d="M401.57,209.75H371.62q-39.93,0-49.05,35.9l-14,220.7v50.07H344.1l6.85-112h46.2l-6.85,112,0,.52h40.22l0-.52,16.21-254Q449.91,209.75,401.57,209.75ZM353.52,367.2l6.76-102.26q1.07-18,18.61-18H390q17.53,0,16.48,18L399.73,367.2Z"/></g></g></svg>